<svg width="24" height="24" viewBox="0 0 24 24" fill="none" xmlns="http://www.w3.org/2000/svg">
<path d="M23.384 21.619L16.855 15.09C18.2801 13.2166 18.9405 10.8719 18.7024 8.53014C18.4644 6.18839 17.3457 4.02447 15.5728 2.47619C13.7999 0.927898 11.5051 0.110836 9.15258 0.190302C6.8001 0.269769 4.56563 1.23983 2.90123 2.90423C1.23683 4.56863 0.266771 6.8031 0.187304 9.15558C0.107838 11.5081 0.9249 13.8029 2.47319 15.5758C4.02147 17.3487 6.18539 18.4674 8.52714 18.7054C10.8689 18.9435 13.2136 18.2831 15.087 16.858L21.616 23.387C21.8525 23.6176 22.1697 23.7467 22.5 23.7467C22.8303 23.7467 23.1475 23.6176 23.384 23.387C23.6182 23.1524 23.7498 22.8345 23.7498 22.503C23.7498 22.1715 23.6182 21.8536 23.384 21.619ZM2.75 9.5C2.75 8.16497 3.14588 6.85993 3.88758 5.7499C4.62928 4.63987 5.68349 3.7747 6.91689 3.26381C8.15029 2.75292 9.50749 2.61925 10.8169 2.8797C12.1262 3.14015 13.329 3.78302 14.273 4.72703C15.217 5.67103 15.8598 6.87377 16.1203 8.18314C16.3808 9.49251 16.2471 10.8497 15.7362 12.0831C15.2253 13.3165 14.3601 14.3707 13.2501 15.1124C12.1401 15.8541 10.835 16.25 9.5 16.25C7.71044 16.2479 5.99478 15.536 4.72937 14.2706C3.46396 13.0052 2.75212 11.2896 2.75 9.5Z" fill="white"/>
</svg>
