<svg width="24" height="24" viewBox="0 0 24 24" fill="none" xmlns="http://www.w3.org/2000/svg">
<path d="M20.2501 1.49998C19.6534 1.49998 19.0811 1.73704 18.6591 2.15899C18.2372 2.58095 18.0001 3.15325 18.0001 3.74998C18.0001 4.34672 18.2372 4.91902 18.6591 5.34097C19.0811 5.76293 19.6534 5.99998 20.2501 5.99998C20.8469 5.99998 21.4192 5.76293 21.8411 5.34097C22.2631 4.91902 22.5001 4.34672 22.5001 3.74998C22.5001 3.15325 22.2631 2.58095 21.8411 2.15899C21.4192 1.73704 20.8469 1.49998 20.2501 1.49998ZM16.5001 3.74998C16.5 2.87013 16.8093 2.01826 17.3738 1.3434C17.9384 0.668542 18.7222 0.213678 19.5883 0.0583884C20.4543 -0.0969012 21.3474 0.0572728 22.1112 0.493936C22.8751 0.9306 23.4611 1.62195 23.7667 2.44702C24.0723 3.27209 24.078 4.17835 23.7829 5.00724C23.4878 5.83613 22.9107 6.53487 22.1524 6.9812C21.3942 7.42753 20.5032 7.59304 19.6352 7.44876C18.7673 7.30448 17.9777 6.85961 17.4046 6.19198L7.32764 10.872C7.5593 11.6061 7.5593 12.3938 7.32764 13.128L17.4046 17.808C18.0104 17.1035 18.8561 16.6489 19.7779 16.5325C20.6997 16.416 21.6319 16.6459 22.3939 17.1775C23.1559 17.7092 23.6933 18.5048 23.9021 19.4102C24.1109 20.3155 23.9762 21.2662 23.524 22.0778C23.0719 22.8895 22.3345 23.5044 21.4548 23.8034C20.5751 24.1024 19.6157 24.0642 18.7626 23.6961C17.9094 23.328 17.2233 22.6564 16.8372 21.8113C16.4511 20.9662 16.3924 20.0079 16.6726 19.122L6.59564 14.442C6.09679 15.0233 5.43186 15.438 4.69031 15.6301C3.94875 15.8222 3.16614 15.7827 2.44775 15.5167C1.72936 15.2507 1.10965 14.7711 0.671999 14.1424C0.234347 13.5137 -0.000259399 12.766 -0.000259399 12C-0.000259399 11.2339 0.234347 10.4863 0.671999 9.85755C1.10965 9.22884 1.72936 8.74923 2.44775 8.48326C3.16614 8.21729 3.94875 8.17772 4.69031 8.36985C5.43186 8.56199 6.09679 8.97663 6.59564 9.55798L16.6726 4.87798C16.5579 4.51298 16.4998 4.13258 16.5001 3.74998V3.74998ZM3.75014 9.74998C3.1534 9.74998 2.58111 9.98704 2.15915 10.409C1.73719 10.8309 1.50014 11.4032 1.50014 12C1.50014 12.5967 1.73719 13.169 2.15915 13.591C2.58111 14.0129 3.1534 14.25 3.75014 14.25C4.34688 14.25 4.91917 14.0129 5.34113 13.591C5.76309 13.169 6.00014 12.5967 6.00014 12C6.00014 11.4032 5.76309 10.8309 5.34113 10.409C4.91917 9.98704 4.34688 9.74998 3.75014 9.74998ZM20.2501 18C19.6534 18 19.0811 18.237 18.6591 18.659C18.2372 19.0809 18.0001 19.6532 18.0001 20.25C18.0001 20.8467 18.2372 21.419 18.6591 21.841C19.0811 22.2629 19.6534 22.5 20.2501 22.5C20.8469 22.5 21.4192 22.2629 21.8411 21.841C22.2631 21.419 22.5001 20.8467 22.5001 20.25C22.5001 19.6532 22.2631 19.0809 21.8411 18.659C21.4192 18.237 20.8469 18 20.2501 18Z" fill="black"/>
</svg>
